PathFileType	4	(X/Y/Z)	/Users/itak/Documents/Research/Walk-IL/dataset/trc/00036_00004.trc
DataRate	CameraRate	NumFrames	NumMarkers	Units	OrigDataRate	OrigDataStartFrame	OrigNumFrames
100.000000	100.000000	4	53	mm	100.000000	635	726
Frame#	Time	RPSI			LPSI			L3			STRN			T10			C7			CLAV			RBAK			LBAK			LSHO			LUPA			LAEL			LAOL			LWTS			LWPS			LFRA			LIFD			LHPS			LHTS			RSHO			RUPA			RAEL			RAOL			RWTS			RWPS			RFRA			RIFD			RHTS			RHPS			RBHD			LFHD			RFHD			LBHD			LHIP			RHIP			RASI			LASI			LKNE			LTHI			LANK			LTIP			LTOE			LMT1			LMT5			LHEE			RKNE			RTHI			RANK			RTIP			RTOE			RMT1			RMT5			RHEE			
		X1	Y1	Z1	X2	Y2	Z2	X3	Y3	Z3	X4	Y4	Z4	X5	Y5	Z5	X6	Y6	Z6	X7	Y7	Z7	X8	Y8	Z8	X9	Y9	Z9	X10	Y10	Z10	X11	Y11	Z11	X12	Y12	Z12	X13	Y13	Z13	X14	Y14	Z14	X15	Y15	Z15	X16	Y16	Z16	X17	Y17	Z17	X18	Y18	Z18	X19	Y19	Z19	X20	Y20	Z20	X21	Y21	Z21	X22	Y22	Z22	X23	Y23	Z23	X24	Y24	Z24	X25	Y25	Z25	X26	Y26	Z26	X27	Y27	Z27	X28	Y28	Z28	X29	Y29	Z29	X30	Y30	Z30	X31	Y31	Z31	X32	Y32	Z32	X33	Y33	Z33	X34	Y34	Z34	X35	Y35	Z35	X36	Y36	Z36	X37	Y37	Z37	X38	Y38	Z38	X39	Y39	Z39	X40	Y40	Z40	X41	Y41	Z41	X42	Y42	Z42	X43	Y43	Z43	X44	Y44	Z44	X45	Y45	Z45	X46	Y46	Z46	X47	Y47	Z47	X48	Y48	Z48	X49	Y49	Z49	X50	Y50	Z50	X51	Y51	Z51	X52	Y52	Z52	X53	Y53	Z53	

636	6.350000000000001	675.4752807617188	1038.33349609375	797.4714965820312	738.2484130859375	1029.095947265625	949.05419921875	719.490234375	1091.405395507812	877.2511596679688	519.8861694335938	1291.140869140625	949.3673095703125	753.220703125	1235.004028320312	866.0614624023438	716.0763549804688	1505.421875	886.7576293945312	564.072265625	1415.587280273438	936.4197998046875	738.952880859375	1365.274780273438	797.3512573242188	766.196044921875	1466.096435546875	972.0525512695312	697.31201171875	1478.650634765625	1076.4287109375	758.773681640625	1356.44287109375	1139.953979492188	783.567626953125	1142.091918945312	1165.922241210938	796.8383178710938	1127.65869140625	1061.8583984375	690.0272827148438	884.6242065429688	1158.824096679688	779.0447998046875	874.7711181640625	1167.996948242188	779.9825439453125	1026.55078125	1181.074340820312	665.4396362304688	700.5560302734375	1159.59912109375	753.1525268554688	783.7870483398438	1182.267456054688	682.0303344726562	790.39697265625	1180.385009765625	588.1143798828125	1486.267578125	747.31787109375	581.0938110351562	1417.028198242188	675.9852294921875	623.5263671875	1154.028686523438	634.4390869140625	642.9036254882812	1122.091796875	727.3339233398438	509.9371948242188	888.7733154296875	670.9851684570312	564.7594604492188	879.5131225585938	595.6168823242188	610.3406982421875	1078.923095703125	616.7241821289062	498.0402526855469	702.105712890625	679.0697021484375	476.9225158691406	780.115966796875	654.6144409179688	526.5106201171875	777.8287353515625	596.446044921875	631.9093017578125	1700.676391601562	963.25830078125	432.3432312011719	1652.007568359375	889.314208984375	456.020263671875	1663.376342773438	984.5250854492188	593.1386108398438	1680.177124023438	825.7380981445312	676.1984252929688	934.5355834960938	1090.50048828125	533.9163818359375	923.8762817382812	744.1569213867188	462.3158264160156	960.3712158203125	847.9310913085938	550.5637817382812	987.48876953125	1066.19873046875	462.26220703125	539.7714233398438	1120.1455078125	546.9762573242188	655.6343383789062	1130.51708984375	473.6911315917969	39.5294075012207	1169.6005859375	488.5070495605469	290.8924560546875	1157.979858398438	248.6930084228516	42.01761245727539	1124.121948242188	306.1277770996094	49.10413360595703	1103.477416992188	352.6448364257812	38.24353408813477	1201.604614257812	536.4205322265625	47.12063217163086	1109.870727539062	587.4719848632812	487.5757141113281	770.5711669921875	527.8927612304688	756.6014404296875	754.3038940429688	898.703369140625	115.6418075561523	615.69580078125	655.4972534179688	375.4371032714844	736.2584228515625	809.4383544921875	36.00627517700195	798.7409057617188	857.3304443359375	57.61199951171875	779.0503540039062	800.540771484375	39.15263748168945	701.5962524414062	958.7110595703125	153.8670043945312	613.0935668945312	
637	6.36	670.0025634765625	1039.543090820312	803.3165283203125	731.9112548828125	1030.598022460938	955.2020874023438	713.7610473632812	1092.767822265625	883.4063110351562	513.7494506835938	1292.542846679688	954.448974609375	747.5164794921875	1236.319580078125	873.147705078125	710.7398681640625	1506.766357421875	894.1585083007812	558.0464477539062	1417.017700195312	942.1348266601562	734.2859497070312	1366.783813476562	804.6641845703125	759.8919677734375	1467.258544921875	979.9408569335938	689.8939819335938	1479.953735351562	1083.542114257812	750.1507568359375	1357.609619140625	1147.894165039062	773.8831176757812	1143.21337890625	1174.306518554688	788.3599243164062	1128.661499023438	1070.441162109375	680.337890625	885.581298828125	1166.319702148438	769.2562866210938	875.900146484375	1176.442626953125	770.0038452148438	1027.686767578125	1189.469482421875	657.439453125	700.7216186523438	1165.84326171875	743.3680419921875	784.8789672851562	1190.300170898438	672.1639404296875	791.1735229492188	1187.608520507812	584.0572509765625	1488.1064453125	753.5040283203125	577.8141479492188	1419.083374023438	681.958984375	621.97412109375	1156.607177734375	640.36865234375	639.451171875	1124.195922851562	733.4790649414062	510.4223937988281	889.6932373046875	671.4124755859375	567.6092529296875	882.036376953125	597.5744018554688	609.864501953125	1081.76904296875	621.7885131835938	500.921875	702.7505493164062	677.1031494140625	479.5594787597656	780.6843872070312	653.033447265625	530.7589111328125	779.8419189453125	596.0643310546875	626.3299560546875	1702.125	969.6018676757812	427.3644104003906	1653.891479492188	893.8174438476562	450.1506042480469	1665.24267578125	989.2238159179688	588.805908203125	1681.623901367188	831.739501953125	669.2263793945312	936.2308349609375	1096.385620117188	528.887451171875	924.7879638671875	749.075439453125	456.7647094726562	961.6744384765625	852.4827880859375	543.562255859375	988.736083984375	1071.319091796875	457.4867553710938	539.7899169921875	1124.244384765625	541.67724609375	656.4733276367188	1135.305297851562	473.6839904785156	39.32138442993164	1169.826049804688	485.9187316894531	290.8072814941406	1160.136352539062	248.3993072509766	40.95126342773438	1124.956176757812	305.7924499511719	48.81782150268555	1104.257446289062	352.7704772949219	37.61491012573242	1202.346923828125	536.3427124023438	47.44459915161133	1110.158325195312	578.1024780273438	487.81494140625	775.0685424804688	521.87158203125	757.6114501953125	759.1087646484375	895.4759521484375	121.4640808105469	618.467529296875	647.382080078125	376.3648376464844	740.2982177734375	808.5542602539062	35.92736434936523	799.2716674804688	855.1227416992188	59.36668014526367	780.3927001953125	799.5654907226562	39.80443954467773	702.3862915039062	954.28125	161.5470123291016	617.0087890625	
638	6.37	664.7384643554688	1040.849365234375	809.0843505859375	725.7372436523438	1032.227416992188	961.321044921875	708.1904296875	1094.229248046875	889.55615234375	507.638671875	1293.978759765625	959.3982543945312	741.8278198242188	1237.766235351562	880.2009887695312	705.3355102539062	1508.21435546875	901.4654541015625	552.0160522460938	1418.495239257812	947.7581176757812	729.5956420898438	1368.424560546875	811.8702392578125	753.5469360351562	1468.508544921875	987.701171875	682.4739379882812	1481.258178710938	1090.541748046875	741.6307373046875	1358.790283203125	1155.647583007812	764.420166015625	1144.368530273438	1182.51806640625	780.1093139648438	1129.706298828125	1078.865600585938	670.658935546875	886.7112426757812	1173.635498046875	759.4398803710938	877.0620727539062	1184.747314453125	760.1679077148438	1028.852905273438	1197.692993164062	649.2506713867188	701.0502319335938	1171.879150390625	733.4019775390625	786.0357666015625	1198.203735351562	662.1558227539062	792.14794921875	1194.65478515625	579.934326171875	1490.03515625	759.6232299804688	574.4595947265625	1421.252685546875	687.8561401367188	620.3428955078125	1159.310546875	646.0574951171875	636.1154174804688	1126.443359375	739.3211669921875	511.0079040527344	890.885498046875	672.1080322265625	570.19189453125	884.7391357421875	599.751953125	609.2719116210938	1084.724609375	626.7141723632812	503.8393859863281	703.7633666992188	675.8375244140625	482.1087341308594	781.6209716796875	652.0581665039062	534.7191162109375	782.0580444335938	596.2421264648438	620.7326049804688	1703.623046875	975.8773803710938	422.3472290039062	1655.868530273438	898.3009033203125	444.2946166992188	1667.1982421875	993.886474609375	584.4223022460938	1683.144165039062	837.6953125	662.4172973632812	937.9373168945312	1102.129150390625	524.04248046875	925.8712158203125	753.7696533203125	451.4571533203125	963.0665283203125	856.8432006835938	536.6777954101562	990.002197265625	1076.240478515625	453.2351684570312	539.6917114257812	1127.906005859375	536.789306640625	657.1436767578125	1139.778198242188	473.7126770019531	39.21644973754883	1169.92822265625	483.7537536621094	290.6903991699219	1161.961791992188	248.2475433349609	40.33417510986328	1125.478759765625	305.6049194335938	48.72274780273438	1104.742797851562	352.8944091796875	37.26936721801758	1202.833129882812	536.307373046875	47.57715225219727	1110.3115234375	568.4717407226562	488.1816101074219	779.584716796875	515.9082641601562	758.775634765625	763.8214111328125	891.9259033203125	127.6383361816406	621.50634765625	638.922607421875	377.4335632324219	744.4427490234375	807.4066772460938	35.78897476196289	800.0123291015625	852.6964721679688	61.31330490112305	781.8742065429688	798.41357421875	40.86323547363281	703.275634765625	949.4844970703125	169.5211334228516	621.2555541992188	
639	6.38	659.6714477539062	1042.263305664062	814.7510375976562	719.7434692382812	1033.96337890625	967.368896484375	702.7799072265625	1095.786376953125	895.6629028320312	501.5473937988281	1295.447631835938	964.2034912109375	736.210205078125	1239.325439453125	887.1861572265625	699.8749389648438	1509.750244140625	908.6673583984375	545.990478515625	1420.006713867188	953.268798828125	724.9016723632812	1370.17529296875	818.9723510742188	747.17236328125	1469.838745117188	995.3240356445312	675.0619506835938	1482.553100585938	1097.414428710938	733.2244262695312	1359.973022460938	1163.203002929688	755.19091796875	1145.546508789062	1190.543823242188	772.0884399414062	1130.77880859375	1087.120239257812	660.9937133789062	888.0067138671875	1180.768432617188	749.60400390625	878.2481689453125	1192.906982421875	750.48876953125	1030.042358398438	1205.736572265625	640.7667236328125	701.5879516601562	1177.78955078125	723.2551879882812	787.2545776367188	1205.987670898438	652.0125122070312	793.3430786132812	1201.543579101562	575.7767944335938	1492.029663085938	765.6514282226562	571.0665283203125	1423.509765625	693.65673828125	618.6319580078125	1162.107055664062	651.4984130859375	632.9276123046875	1128.80859375	744.8609008789062	511.6461181640625	892.3182983398438	673.0967407226562	572.4376220703125	887.5802612304688	602.1163940429688	608.5525512695312	1087.7587890625	631.4880981445312	506.7649841308594	705.089599609375	675.2938232421875	484.5254211425781	782.8705444335938	651.71435546875	538.3078002929688	784.4318237304688	596.9548950195312	615.1222534179688	1705.155151367188	982.0783081054688	417.2955627441406	1657.920532226562	902.7667236328125	438.4567565917969	1669.222412109375	998.5156860351562	579.98388671875	1684.728515625	843.5975341796875	655.8202514648438	939.637451171875	1107.694458007812	519.3873901367188	927.1118774414062	758.2506103515625	446.3801574707031	964.5458374023438	861.0045166015625	529.9363403320312	991.2869873046875	1080.95361328125	449.4131164550781	539.5204467773438	1131.147827148438	532.189697265625	657.6806640625	1143.902465820312	473.7549133300781	39.18736267089844	1169.9453125	481.9504699707031	290.5535583496094	1163.510131835938	248.1869201660156	40.02257537841797	1125.753540039062	305.52001953125	48.72946548461914	1105.000732421875	352.997802734375	37.10577774047852	1203.12109375	536.2864379882812	47.55760192871094	1110.361206054688	558.6171875	488.6846008300781	784.15185546875	510.01513671875	760.0846557617188	768.4432983398438	888.064453125	134.147216796875	624.8438110351562	630.164794921875	378.6419982910156	748.7176513671875	805.9906005859375	35.57712554931641	800.9584350585938	850.0590209960938	63.45006561279297	783.5023193359375	797.0556030273438	42.3706169128418	704.2747802734375	944.3410034179688	177.74560546875	625.8759155273438	
